<svg width="343" height="56" viewBox="0 0 343 56" fill="none" xmlns="http://www.w3.org/2000/svg">
<path d="M188.245 4.7384H198.764V5.47949H198.393C198.046 5.47949 197.726 5.61472 197.428 5.88519C197.132 6.15295 196.886 6.47482 196.688 6.84536C196.49 7.21861 196.33 7.63513 196.205 8.10304C196.081 8.57365 196.021 8.97936 196.021 9.32556V48.7356C196.021 49.1305 196.07 49.5632 196.168 50.0284C196.268 50.499 196.428 50.9291 196.65 51.3213C196.875 51.7161 197.122 52.0596 197.39 52.3572C197.664 52.652 197.994 52.8007 198.39 52.8007H198.761V53.5391H188.242V52.8007H188.614C189.007 52.8007 189.353 52.6628 189.649 52.395C189.947 52.1219 190.205 51.7784 190.43 51.3591C190.652 50.9399 190.812 50.4963 190.909 50.0284C191.01 49.5605 191.058 49.1305 191.058 48.7356V9.32556C191.058 8.97936 191.01 8.58448 190.909 8.14091C190.812 7.69734 190.652 7.2781 190.43 6.88322C190.205 6.49104 189.947 6.15566 189.649 5.8879C189.353 5.61472 189.007 5.48219 188.614 5.48219H188.242V4.74111L188.245 4.7384Z" fill="#006EB7" stroke="#006EB7" stroke-width="2.5" stroke-miterlimit="10"/>
<path d="M191.061 24.561C191.061 24.2148 191.012 8.58445 190.912 8.14089C190.814 7.69732 190.654 7.27808 190.432 6.8832C190.207 6.49102 189.95 6.15564 189.652 5.88787C189.356 5.6147 189.009 5.48217 188.616 5.48217H188.245V4.74109H198.764V5.48217H198.393C198.046 5.48217 197.726 5.61741 197.428 5.88787C197.132 6.15564 196.886 6.4775 196.688 6.84804C196.49 7.22129 196.33 7.63781 196.205 8.10572C196.081 8.57634 196.021 19.8522 196.021 20.1984" fill="#0BBBEF"/>
<path d="M191.061 24.561C191.061 24.2148 191.012 8.58445 190.912 8.14089C190.814 7.69732 190.654 7.27808 190.432 6.8832C190.207 6.49102 189.95 6.15564 189.652 5.88787C189.356 5.6147 189.009 5.48217 188.616 5.48217H188.245V4.74109H198.764V5.48217H198.393C198.046 5.48217 197.726 5.61741 197.428 5.88787C197.132 6.15564 196.886 6.4775 196.688 6.84804C196.49 7.22129 196.33 7.63781 196.205 8.10572C196.081 8.57634 196.021 19.8522 196.021 20.1984" stroke="#0BBBEF" stroke-width="2.5" stroke-miterlimit="10"/>
<path d="M206.02 52.8061H206.391C206.787 52.8061 207.134 52.6682 207.429 52.4004C207.725 52.1272 207.985 51.7973 208.207 51.4024C208.432 51.0075 208.603 50.5883 208.728 50.1447C208.852 49.7011 208.915 49.2819 208.915 48.887V9.32823C208.915 8.98203 208.852 8.58713 208.728 8.14356C208.603 7.69999 208.432 7.28077 208.207 6.88588C207.985 6.4937 207.725 6.15832 207.429 5.89056C207.134 5.61739 206.787 5.48486 206.391 5.48486H206.02V4.74377H234.547V11.6191H233.807C233.707 10.4858 233.263 9.48779 232.474 8.625C231.682 7.7622 230.449 7.33216 228.771 7.33216H213.875V26.0405H226.178C227.313 26.0405 228.265 25.697 229.029 25.0046C229.796 24.3149 230.175 23.5008 230.175 22.565H230.918V31.8069H230.175C230.175 30.9225 229.804 30.157 229.064 29.516C228.324 28.875 227.359 28.5531 226.175 28.5531H213.872V50.9588H230.102C231.037 50.9588 231.856 50.737 232.547 50.2934C233.238 49.8499 233.818 49.3197 234.287 48.7004C234.756 48.0837 235.103 47.4211 235.323 46.7043C235.548 45.9876 235.659 45.3844 235.659 44.8922H236.399V53.5445H206.017V52.8061H206.02Z" fill="#006EB7" stroke="#006EB7" stroke-width="2.5" stroke-miterlimit="10"/>
<path d="M213.902 28.5505H213.875V28.5721L208.909 32.9402V9.32285C208.909 8.97936 208.847 8.58177 208.725 8.1382C208.603 7.69463 208.427 7.2754 208.205 6.88322C207.982 6.49104 207.725 6.15566 207.427 5.88519C207.131 5.61472 206.784 5.47949 206.391 5.47949H206.02V4.7384H234.547V11.6137H233.81C233.791 11.4379 233.769 11.2648 233.737 11.0998C233.561 10.1775 233.141 9.3526 232.474 8.61963C231.682 7.76225 230.446 7.32679 228.771 7.32679H213.875V26.0351H216.759L213.902 28.5505Z" fill="#0BBBEF" stroke="#0BBBEF" stroke-width="2.5" stroke-miterlimit="10"/>
<path d="M260.703 52.8061H261.074V53.5445H250.552V52.8061H250.926C251.319 52.8061 251.666 52.6573 251.962 52.3625C252.257 52.065 252.517 51.7215 252.74 51.3266C252.965 50.9345 253.122 50.5017 253.222 50.0338C253.32 49.5659 253.371 49.1358 253.371 48.7409V7.48092H244.776C243.985 7.48092 243.294 7.65401 242.703 8.00021C242.109 8.34371 241.616 8.77647 241.22 9.29306C240.825 9.81236 240.529 10.3776 240.331 10.9943C240.133 11.611 240.036 12.2141 240.036 12.8065H239.293V4.74377H272.564V12.8065H271.824C271.824 12.2141 271.724 11.611 271.528 10.9943C271.331 10.3776 271.032 9.81236 270.639 9.29306C270.244 8.77376 269.75 8.34371 269.157 8.00021C268.566 7.65401 267.872 7.48092 267.083 7.48092H258.339V48.7409C258.339 49.1358 258.388 49.5686 258.489 50.0338C258.586 50.5044 258.746 50.9345 258.971 51.3266C259.193 51.7215 259.44 52.065 259.711 52.3625C259.985 52.6573 260.315 52.8061 260.711 52.8061H260.703Z" fill="#006EB7" stroke="#006EB7" stroke-width="2.5" stroke-miterlimit="10"/>
<path d="M239.285 4.73843V12.8011H240.028C240.028 12.2088 240.128 11.6029 240.326 10.989C240.524 10.3696 240.819 9.80431 241.212 9.28501C241.611 8.76571 242.104 8.33566 242.698 7.99217C243.291 7.64326 243.98 7.47287 244.771 7.47287H253.366V24.3691L258.331 19.9983V7.47287H267.075C267.864 7.47287 268.561 7.64326 269.149 7.99217C269.718 8.32214 270.195 8.72784 270.583 9.2201C270.602 9.23903 270.615 9.26066 270.631 9.2823C271.024 9.8016 271.323 10.3669 271.518 10.9863C271.716 11.6002 271.816 12.2061 271.816 12.7984H272.553V4.73572H239.282L239.285 4.73843Z" fill="#0BBBEF" stroke="#0BBBEF" stroke-width="2.5" stroke-miterlimit="10"/>
<path d="M298.047 53.2469H298.419C299.603 53.2469 300.197 52.7033 300.197 51.6187C300.197 51.2266 300.121 50.8046 299.972 50.361L293.304 32.3938H280.337L273.892 50.0662C273.743 50.4611 273.667 50.8317 273.667 51.1779C273.667 51.8189 273.84 52.3219 274.187 52.6925C274.532 53.063 274.903 53.2469 275.299 53.2469H275.673V53.9853H267.447V53.2469H267.818C268.458 53.2469 269.089 52.8656 269.704 52.1002C270.322 51.3374 270.829 50.4368 271.225 49.4036L288.195 4.29749L304.791 48.96C305.135 49.9445 305.618 50.9074 306.236 51.8432C306.854 52.779 307.656 53.2497 308.642 53.2497H309.014V53.988H298.05V53.2497L298.047 53.2469ZM281.077 29.8811H292.491L286.785 14.4265L281.08 29.8811H281.077Z" fill="#006EB7" stroke="#006EB7" stroke-width="2.5" stroke-miterlimit="10"/>
<path d="M288.195 4.2948L278.153 30.9874L281.888 27.7039L286.788 14.4266L289.287 21.191L293.198 17.7506L288.198 4.2948H288.195Z" fill="#0BBBEF" stroke="#0BBBEF" stroke-width="2.5" stroke-miterlimit="10"/>
<path d="M341.322 40.5268C341.322 42.9935 340.826 45.1005 339.837 46.8504C338.845 48.6003 337.571 50.0176 336.01 51.1022C334.449 52.1867 332.687 52.9738 330.73 53.4661C328.773 53.9583 326.827 54.2072 324.897 54.2072C322.967 54.2072 321.205 54.0097 319.766 53.6148C318.332 53.2199 317.018 52.8494 315.831 52.5059C315.039 52.2598 314.321 52.0515 313.681 51.8757C313.039 51.7026 312.396 51.6188 311.754 51.6188V43.1883H312.497C312.497 45.0626 312.976 46.5529 313.939 47.6618C314.904 48.7707 316.028 49.62 317.316 50.2123C318.606 50.8047 319.896 51.186 321.184 51.3564C322.471 51.5322 323.414 51.6161 324.011 51.6161C326.141 51.6161 327.979 51.3077 329.516 50.6911C331.05 50.0744 332.315 49.263 333.307 48.2487C334.297 47.2399 335.029 46.1174 335.5 44.8841C335.972 43.6535 336.208 42.3958 336.208 41.1137C336.208 39.4882 335.861 38.1197 335.17 37.0107C334.478 35.8991 333.579 34.9254 332.465 34.087C331.353 33.2512 330.079 32.5345 328.648 31.9422C327.217 31.3525 325.759 30.7602 324.276 30.1679C322.599 29.5296 320.942 28.8615 319.313 28.1718C317.685 27.4821 316.224 26.6328 314.942 25.6213C313.657 24.6097 312.619 23.4034 311.83 21.997C311.039 20.5933 310.646 18.8569 310.646 16.7851C310.646 14.7133 311.066 12.7307 311.906 11.1323C312.743 9.52839 313.868 8.2085 315.278 7.17531C316.687 6.13942 318.289 5.36317 320.094 4.84387C321.897 4.32457 323.737 4.06763 325.615 4.06763C326.9 4.06763 328.109 4.15417 329.247 4.32457C330.383 4.50037 331.47 4.70864 332.505 4.95476C333.345 5.15221 334.161 5.31178 334.953 5.4362C335.741 5.56061 336.509 5.62012 337.248 5.62012V13.2392H336.509C336.408 10.6779 335.392 8.93877 333.459 8.02729C331.527 7.11581 328.849 6.65872 325.428 6.65872C323.444 6.65872 321.821 6.99139 320.558 7.65675C319.292 8.3221 318.289 9.1335 317.546 10.0964C316.804 11.0592 316.297 12.0924 316.023 13.2014C315.749 14.3103 315.614 15.284 315.614 16.1224C315.614 17.5018 315.923 18.6865 316.543 19.6737C317.164 20.6609 317.994 21.521 319.034 22.2621C320.072 23.0004 321.276 23.6658 322.636 24.2581C324 24.8504 325.423 25.4184 326.911 25.9594C328.591 26.6004 330.302 27.2901 332.036 28.0285C333.768 28.7695 335.319 29.681 336.682 30.7656C338.045 31.8502 339.157 33.1809 340.027 34.7604C340.891 36.3373 341.325 38.263 341.325 40.5268H341.322Z" fill="#006EB7" stroke="#006EB7" stroke-width="2.5" stroke-miterlimit="10"/>
<path d="M323.254 24.5205C323.046 24.4339 322.837 24.3501 322.634 24.2581C321.27 23.6658 320.067 23.0031 319.032 22.262C317.985 21.521 317.159 20.6582 316.538 19.6737C315.917 18.6892 315.611 17.5045 315.611 16.1224C315.611 15.2813 315.747 14.3103 316.023 13.204C316.294 12.0924 316.801 11.0592 317.544 10.0964C318.286 9.13349 319.292 8.32209 320.558 7.65673C321.821 6.98867 323.441 6.6587 325.428 6.6587C328.849 6.6587 331.524 7.11038 333.457 8.02727C335.3 8.89548 336.308 10.5156 336.484 12.8768C336.492 12.9931 336.503 13.1175 336.506 13.2392H337.248V5.6201C336.506 5.6201 335.741 5.5606 334.953 5.43888C334.161 5.31176 333.345 5.1549 332.505 4.95475C331.47 4.71133 330.383 4.49766 329.247 4.32726C328.106 4.15687 326.897 4.07031 325.613 4.07031C323.74 4.07031 321.897 4.32726 320.094 4.84386C318.289 5.36316 316.687 6.1394 315.275 7.1753C313.868 8.20849 312.746 9.52838 311.909 11.1323C311.066 12.7361 310.646 14.6186 310.646 16.7878C310.646 18.9569 311.039 20.5987 311.833 21.9997C312.624 23.4088 313.662 24.6151 314.947 25.6267C316.188 26.6058 317.603 27.4388 319.175 28.115L323.257 24.5205H323.254Z" fill="#0BBBEF" stroke="#0BBBEF" stroke-width="2.5" stroke-miterlimit="10"/>
<path d="M91.0568 4C94.9138 4 98.3696 4.67887 101.43 6.03392C104.492 7.39168 107.1 9.21464 109.247 11.5082C111.396 13.7991 113.052 16.4605 114.212 19.4925C115.372 22.5244 115.952 25.6943 115.952 28.994C115.952 32.6886 115.272 36.0911 113.914 39.1961C112.553 42.3011 110.689 44.9652 108.317 47.1831C105.948 49.4009 103.194 51.14 100.058 52.395C96.9195 53.6527 93.5748 54.2775 90.016 54.2775C86.2106 54.2775 82.7927 53.5878 79.7543 52.2084C76.7159 50.829 74.1464 49.006 72.0458 46.7368C69.9452 44.4703 68.3298 41.8548 67.1941 38.8986C66.0557 35.9424 65.4893 32.8617 65.4893 29.654C65.4893 26.4462 66.0557 23.3818 67.1941 20.3012C68.3298 17.2205 69.9967 14.4726 72.1949 12.0573C74.393 9.64468 77.071 7.6946 80.2368 6.21784C83.3944 4.73838 87.002 4 91.0514 4H91.0568ZM91.0216 51.6918C94.3364 51.5457 97.2447 50.7938 99.7438 49.4388C102.243 48.081 104.335 46.3581 106.018 44.262C107.699 42.1659 108.948 39.8615 109.764 37.3488C110.583 34.8335 110.989 32.3451 110.989 29.8785C110.989 27.1684 110.496 24.4312 109.507 21.6697C108.515 18.9109 107.105 16.4091 105.276 14.1642C103.444 11.922 101.253 10.0991 98.7057 8.69263C96.1551 7.28619 93.2984 6.58568 90.1299 6.58568C86.9613 6.58568 84.3132 7.26456 81.8901 8.61961C79.467 9.97736 77.3962 11.7138 75.6913 13.8315C73.9838 15.952 72.6855 18.3186 71.7964 20.9313C70.9047 23.5441 70.4602 26.1081 70.4602 28.6208C70.4602 31.3309 70.9806 34.0545 72.0187 36.7916C73.0595 39.5288 74.4933 42.0036 76.3256 44.2241C78.1578 46.4393 80.3208 48.2406 82.8198 49.62C85.3188 50.9994 88.0537 51.6891 91.0243 51.6891L91.0216 51.6918Z" fill="#006EB7" stroke="#006EB7" stroke-width="2.5" stroke-miterlimit="10"/>
<path d="M101.43 6.06638C98.3695 4.71133 94.911 4.03516 91.0567 4.03516C87.0046 4.03516 83.4024 4.77624 80.2448 6.253C77.0817 7.72977 74.4011 9.67984 72.2029 12.0924C70.002 14.5077 68.3378 17.2584 67.2022 20.339C66.0665 23.4197 65.5 26.5409 65.5 29.6918C65.5 32.8428 66.0665 35.9775 67.2022 38.9338C67.5789 39.9047 67.999 40.8352 68.4788 41.7331L72.5607 38.1413C72.371 37.7112 72.1894 37.2731 72.0186 36.8268C70.9832 34.0897 70.4628 31.366 70.4628 28.6559C70.4628 26.1406 70.91 23.5792 71.8018 20.9638C72.6881 18.3538 73.9891 15.9872 75.694 13.864C77.4042 11.7462 79.4723 10.0125 81.8954 8.65206C84.3213 7.29701 87.0697 6.62084 90.1379 6.62084C93.2061 6.62084 96.1632 7.32136 98.711 8.7305C100.177 9.5392 101.527 10.4886 102.758 11.5758L106.029 8.69534C104.631 7.68378 103.102 6.80747 101.435 6.06638H101.43Z" fill="#0BBBEF" stroke="#0BBBEF" stroke-width="2.5" stroke-miterlimit="10"/>
<path d="M119.828 4.86829H130.296C135.749 4.86829 139.891 5.9123 142.715 7.99491C145.539 10.0802 146.954 13.0337 146.954 16.8582C146.954 18.9164 146.461 20.7556 145.474 22.3757C144.488 23.9931 143.192 25.3536 141.59 26.4571C139.988 27.5606 138.186 28.4072 136.191 28.9941C134.193 29.5837 132.207 29.8758 130.233 29.8758H127.423V48.6329C127.423 49.025 127.472 49.4551 127.569 49.9203C127.667 50.3855 127.827 50.8155 128.049 51.2077C128.271 51.5999 128.515 51.9434 128.786 52.2382C129.054 52.533 129.388 52.6791 129.781 52.6791H130.149V53.4148H119.831V52.6791H120.199C120.544 52.6791 120.864 52.533 121.159 52.2382C121.454 51.9434 121.698 51.6026 121.896 51.2077C122.091 50.8155 122.24 50.3882 122.338 49.9203C122.436 49.4551 122.484 49.025 122.484 48.6329V9.4284C122.484 8.74141 122.286 7.95704 121.893 7.07531C121.5 6.19358 120.934 5.70404 120.197 5.60396H119.828V4.86829ZM127.42 7.44315V27.3037H129.643C131.619 27.3037 133.383 27.0332 134.939 26.495C136.495 25.9567 137.79 25.2454 138.828 24.361C139.864 23.4792 140.655 22.4731 141.2 21.3453C141.742 20.2174 142.016 19.0652 142.016 17.8887C142.016 16.466 141.78 15.1299 141.311 13.8803C140.842 12.6307 140.075 11.5272 139.015 10.5698C137.953 9.61231 136.557 8.85229 134.828 8.28972C133.098 7.72714 130.976 7.44315 128.458 7.44315H127.42Z" fill="#006EB7" stroke="#006EB7" stroke-width="2.5" stroke-miterlimit="10"/>
<path d="M142.718 8.02725C139.888 5.94464 135.752 4.90063 130.299 4.90063H119.831V5.63631H120.197C120.934 5.73097 121.5 6.22323 121.893 7.10495C122.286 7.98939 122.482 8.77646 122.482 9.46345V31.7609L127.515 27.336H127.42V7.4782H128.461C130.976 7.4782 133.101 7.75949 134.83 8.32206C136.56 8.88464 137.953 9.64466 139.018 10.6021C140.08 11.5596 140.848 12.6604 141.314 13.9127C141.436 14.2372 141.544 14.5726 141.636 14.9107L145.669 11.3594C144.978 10.072 143.989 8.96578 142.723 8.02725H142.718Z" fill="#0BBBEF" stroke="#0BBBEF" stroke-width="2.5" stroke-miterlimit="10"/>
<path d="M160.468 52.8034H160.84V53.5418H150.391V52.8034H150.762C151.109 52.8034 151.432 52.6546 151.727 52.3598C152.025 52.0623 152.283 51.7188 152.505 51.3239C152.73 50.9317 152.89 50.499 152.987 50.0311C153.088 49.5632 153.137 49.1331 153.137 48.7382V9.32823C153.137 8.98203 153.088 8.58713 152.987 8.14356C152.89 7.69999 152.73 7.28077 152.505 6.88588C152.283 6.4937 152.025 6.15832 151.727 5.89056C151.432 5.61739 151.109 5.48486 150.762 5.48486H150.391V4.74377H163.284C168.226 4.74377 172.039 5.70664 174.733 7.62967C177.425 9.55 178.772 12.3845 178.772 16.1332C178.772 18.0049 178.463 19.6466 177.845 21.0476C177.224 22.4541 176.4 23.6604 175.359 24.6719C174.324 25.6835 173.102 26.4949 171.692 27.1116C170.283 27.7309 168.789 28.1853 167.209 28.4801L172.546 36.6131C173.831 38.5848 175.14 40.5214 176.473 42.4201C177.807 44.3188 179.116 46.277 180.401 48.2974C180.745 48.7923 181.13 49.3089 181.547 49.8526C181.967 50.3935 182.412 50.8858 182.881 51.3293C183.35 51.7729 183.846 52.1299 184.363 52.4031C184.881 52.6709 185.41 52.8088 185.955 52.8088V53.5472H182.767C180.791 53.5472 179.176 53.0657 177.915 52.1056C176.652 51.1454 175.603 50.023 174.766 48.7409C172.543 45.4899 170.332 42.1848 168.133 38.8337C165.935 35.4826 163.751 32.1801 161.574 28.9264C161.032 28.8777 160.452 28.8155 159.834 28.7425C159.216 28.6667 158.639 28.5829 158.094 28.4828V48.7437C158.094 49.1385 158.143 49.5713 158.243 50.0365C158.341 50.5071 158.5 50.9372 158.725 51.3293C158.948 51.7242 159.194 52.0677 159.465 52.3652C159.739 52.6601 160.07 52.8088 160.466 52.8088L160.468 52.8034ZM158.097 7.25373V26.0378H158.471C158.864 26.0865 159.495 26.1243 160.357 26.1487C161.222 26.1703 162.298 26.1838 163.583 26.1838C164.618 26.1838 165.718 26.027 166.878 25.7051C168.039 25.3833 169.125 24.8423 170.139 24.0769C171.15 23.3142 171.99 22.3161 172.657 21.0828C173.324 19.8522 173.655 18.2997 173.655 16.4253C173.655 14.551 173.297 13.0255 172.581 11.8409C171.863 10.6589 170.876 9.7231 169.619 9.0307C168.358 8.341 166.838 7.87309 165.06 7.62697C163.282 7.38084 161.33 7.25373 159.208 7.25373H158.094H158.097Z" fill="#006EB7" stroke="#006EB7" stroke-width="2.5" stroke-miterlimit="10"/>
<path d="M153.158 35.3906V9.35801C153.158 9.00911 153.112 8.61692 153.009 8.17336C152.914 7.72708 152.752 7.31056 152.529 6.91297C152.307 6.52349 152.05 6.1854 151.752 5.92035C151.456 5.64988 151.136 5.51464 150.787 5.51464H150.415V4.77356H163.309C168.247 4.77356 172.066 5.73643 174.76 7.65947C176.671 9.02263 177.902 10.8483 178.455 13.1337L173.652 17.3612C173.674 17.0664 173.684 16.7661 173.684 16.4524C173.684 14.5835 173.327 13.0526 172.611 11.8734C171.89 10.6887 170.903 9.7556 169.646 9.06049C168.388 8.3708 166.868 7.90559 165.087 7.65947C163.309 7.41064 161.357 7.28351 159.235 7.28351H158.121V26.0676H158.492C158.885 26.1163 159.52 26.1541 160.379 26.1812C161.238 26.2028 162.311 26.2136 163.588 26.2136L160.593 28.8507C160.357 28.8237 160.113 28.7966 159.864 28.7696C159.243 28.6938 158.663 28.6073 158.121 28.5072V31.0226L153.156 35.3906H153.158Z" fill="#0BBBEF" stroke="#0BBBEF" stroke-width="2.5" stroke-miterlimit="10"/>
<path d="M2.00271 4.86829H12.4704C17.9238 4.86829 22.0654 5.9123 24.8896 7.99491C27.7139 10.0802 29.1288 13.0337 29.1288 16.8582C29.1288 18.9164 28.6355 20.7556 27.6489 22.3757C26.6623 23.9931 25.3667 25.3536 23.7648 26.4571C22.1629 27.5606 20.3605 28.4072 18.3656 28.9941C16.368 29.5837 14.3813 29.8758 12.4081 29.8758H9.59736V48.6329C9.59736 49.025 9.64614 49.4551 9.74372 49.9203C9.8413 50.3855 10.0012 50.8155 10.2235 51.2077C10.4457 51.5999 10.6897 51.9434 10.9607 52.2382C11.229 52.533 11.5624 52.6791 11.9554 52.6791H12.3241V53.4148H2.00271V52.6791H2.37133C2.71556 52.6791 3.03539 52.533 3.33082 52.2382C3.62626 51.9434 3.8702 51.6026 4.06806 51.2077C4.26322 50.8155 4.41229 50.3882 4.50987 49.9203C4.60744 49.4551 4.65623 49.025 4.65623 48.6329V9.4284C4.65623 8.74141 4.45837 7.95704 4.06535 7.07531C3.67234 6.19358 3.10586 5.70404 2.36862 5.60396H2V4.86829H2.00271ZM9.59465 7.44315V27.3037H11.8172C13.7931 27.3037 15.5576 27.0332 17.1134 26.495C18.6692 25.9567 19.9648 25.2454 21.0029 24.361C22.0383 23.4792 22.8297 22.4731 23.3745 21.3453C23.9166 20.2174 24.1904 19.0652 24.1904 17.8887C24.1904 16.466 23.9545 15.1299 23.4856 13.8803C23.0167 12.6307 22.2497 11.5272 21.1899 10.5698C20.1274 9.61231 18.7315 8.85229 17.0023 8.28972C15.273 7.72714 13.1507 7.44315 10.6327 7.44315H9.59465Z" fill="#006EB7" stroke="#006EB7" stroke-width="2.5" stroke-miterlimit="10"/>
<path d="M24.8923 8.02725C22.0626 5.94464 17.9265 4.90063 12.4731 4.90063H2.00269V5.63631H2.36859C3.10583 5.73097 3.67231 6.22323 4.06533 7.10495C4.45834 7.98939 4.65349 8.77646 4.65349 9.46345V31.7609L9.68678 27.336H9.59191V7.4782H10.6327C13.148 7.4782 15.273 7.75949 17.0022 8.32206C18.7315 8.88464 20.1247 9.64466 21.1899 10.6021C22.2524 11.5596 23.0194 12.6604 23.4856 13.9127C23.6076 14.2372 23.716 14.5726 23.8082 14.9107L27.8413 11.3594C27.1501 10.072 26.1608 8.96578 24.895 8.02725H24.8923Z" fill="#0BBBEF" stroke="#0BBBEF" stroke-width="2.5" stroke-miterlimit="10"/>
<path d="M42.8733 52.8034H43.2446V53.5418H32.7959V52.8034H33.1672C33.5142 52.8034 33.8367 52.6546 34.1321 52.3598C34.4303 52.0623 34.6878 51.7188 34.91 51.3239C35.135 50.9317 35.2949 50.499 35.3925 50.0311C35.4928 49.5632 35.5416 49.1331 35.5416 48.7382V9.32823C35.5416 8.98203 35.4928 8.58713 35.3925 8.14356C35.2949 7.69999 35.135 7.28077 34.91 6.88588C34.6878 6.4937 34.4303 6.15832 34.1321 5.89056C33.8367 5.61739 33.5142 5.48486 33.1672 5.48486H32.7959V4.74377H45.6894C50.6306 4.74377 54.4442 5.70664 57.1383 7.62967C59.8298 9.55 61.1769 12.3845 61.1769 16.1332C61.1769 18.0049 60.8679 19.6466 60.2499 21.0476C59.6292 22.4541 58.8053 23.6604 57.7644 24.6719C56.7291 25.6835 55.5067 26.4949 54.0972 27.1116C52.6878 27.7309 51.1943 28.1853 49.6142 28.4801L54.951 36.6131C56.2358 38.5848 57.5449 40.5214 58.8784 42.4201C60.212 44.3188 61.5211 46.277 62.8059 48.2974C63.1501 48.7923 63.535 49.3089 63.9524 49.8526C64.3725 50.3935 64.817 50.8858 65.2859 51.3293C65.7548 51.7729 66.2508 52.1299 66.7685 52.4031C67.2862 52.6709 67.8148 52.8088 68.3596 52.8088V53.5472H65.1721C63.1962 53.5472 61.5807 53.0657 60.3204 52.1056C59.0573 51.1454 58.0084 50.023 57.1709 48.7409C54.9483 45.4899 52.7366 42.1848 50.5384 38.8337C48.3403 35.4826 46.1556 32.1801 43.9792 28.9264C43.4371 28.8777 42.857 28.8155 42.2391 28.7425C41.6211 28.6667 41.0438 28.5829 40.499 28.4828V48.7437C40.499 49.1385 40.5477 49.5713 40.648 50.0365C40.7456 50.5071 40.9055 50.9372 41.1305 51.3293C41.3527 51.7242 41.5994 52.0677 41.8704 52.3652C42.1442 52.6601 42.4749 52.8088 42.8706 52.8088L42.8733 52.8034ZM40.5017 7.25373V26.0378H40.8757C41.2687 26.0865 41.9003 26.1243 42.7622 26.1487C43.6268 26.1703 44.7028 26.1838 45.9876 26.1838C47.023 26.1838 48.1234 26.027 49.2835 25.7051C50.4436 25.3833 51.5304 24.8423 52.5441 24.0769C53.5551 23.3142 54.3954 22.3161 55.0621 21.0828C55.7289 19.8522 56.0596 18.2997 56.0596 16.4253C56.0596 14.551 55.7018 13.0255 54.9862 11.8409C54.268 10.6589 53.2814 9.7231 52.0237 9.0307C50.7634 8.341 49.2428 7.87309 47.4648 7.62697C45.6867 7.38084 43.7352 7.25373 41.613 7.25373H40.499H40.5017Z" fill="#006EB7" stroke="#006EB7" stroke-width="2.5" stroke-miterlimit="10"/>
<path d="M35.5633 35.3906V9.35801C35.5633 9.00911 35.5172 8.61692 35.4142 8.17336C35.3193 7.72708 35.1567 7.31056 34.9345 6.91297C34.7122 6.52349 34.4547 6.1854 34.1566 5.92035C33.8611 5.64988 33.5413 5.51464 33.1916 5.51464H32.8203V4.77356H45.7139C50.6523 4.77356 54.4713 5.73643 57.1655 7.65947C59.0763 9.02263 60.3069 10.8483 60.8598 13.1337L56.0569 17.3612C56.0786 17.0664 56.0894 16.7661 56.0894 16.4524C56.0894 14.5835 55.7316 13.0526 55.0161 11.8734C54.2951 10.6887 53.3085 9.7556 52.0509 9.06049C50.7932 8.3708 49.2727 7.90559 47.4919 7.65947C45.7139 7.41064 43.7624 7.28351 41.6401 7.28351H40.5261V26.0676H40.8974C41.2904 26.1163 41.9247 26.1541 42.7839 26.1812C43.6431 26.2028 44.7164 26.2136 45.993 26.2136L42.998 28.8507C42.7622 28.8237 42.5183 28.7966 42.2689 28.7696C41.6482 28.6938 41.0682 28.6073 40.5261 28.5072V31.0226L35.5606 35.3906H35.5633Z" fill="#0BBBEF" stroke="#0BBBEF" stroke-width="2.5" stroke-miterlimit="10"/>
</svg>
