<svg width="120" height="120" viewBox="0 0 120 120" fill="none" xmlns="http://www.w3.org/2000/svg">
<path d="M26.0027 10H47.4368C58.6066 10 67.0821 12.134 72.8689 16.402C78.653 20.67 81.5477 26.7177 81.5477 34.5505C81.5477 38.7671 80.5367 42.532 78.5174 45.8479C76.4954 49.1612 73.8446 51.947 70.5623 54.2081C67.28 56.4666 63.5938 58.1976 59.5037 59.4039C55.411 60.6101 51.3453 61.2106 47.3068 61.2106H41.5498V99.6172C41.5498 100.42 41.6501 101.299 41.8506 102.254C42.0512 103.209 42.3792 104.088 42.8318 104.891C43.2845 105.695 43.7886 106.398 44.3415 106.998C44.8945 107.601 45.5721 107.902 46.3798 107.902H47.1333V109.408H26.0027V107.902H26.7562C27.4582 107.902 28.1141 107.601 28.7186 106.998C29.323 106.398 29.8244 105.695 30.2283 104.891C30.6294 104.088 30.9303 103.212 31.1336 102.254C31.3341 101.299 31.4344 100.423 31.4344 99.6172V19.3393C31.4344 17.9329 31.0306 16.3263 30.2256 14.5195C29.4179 12.7128 28.2632 11.7094 26.7535 11.5065H26V10H26.0027ZM41.5498 15.2714V55.9391H46.1006C50.1446 55.9391 53.7603 55.3874 56.9478 54.2812C60.1325 53.1777 62.7888 51.7198 64.911 49.9131C67.0333 48.1064 68.6514 46.0481 69.7654 43.7383C70.8794 41.4312 71.4351 39.07 71.4351 36.6601C71.4351 33.7499 70.9526 31.0127 69.9931 28.4514C69.0309 25.89 67.4643 23.6316 65.2905 21.6734C63.1167 19.7152 60.2572 18.16 56.7174 17.0024C53.1776 15.8502 48.8273 15.2714 43.672 15.2714H41.5471H41.5498Z" fill="#006EB7"/>
<path d="M72.8716 38.3993C67.0794 34.1367 58.6065 32 47.4395 32H26.0027V33.5065H26.7535C28.2632 33.7012 29.4233 34.7101 30.2283 36.5114C31.0333 38.3236 31.4344 39.9329 31.4344 41.3393V86.9999L41.7395 77.9364H41.5443V37.2714H43.6747C48.8273 37.2714 53.1748 37.8448 56.7147 38.9997C60.2545 40.1546 63.1086 41.7098 65.2878 43.6707C67.467 45.6316 69.0309 47.8873 69.9877 50.4487C70.237 51.114 70.4593 51.7983 70.6463 52.4934L78.905 45.2232C77.4874 42.5862 75.4655 40.3223 72.8716 38.3966V38.3993Z" fill="#0BBBEF"/>
<path d="M38.8528 10H60.2869C71.4567 10 79.9322 12.134 85.719 16.402C91.5031 20.67 94.3978 26.7177 94.3978 34.5505C94.3978 38.7671 93.3868 42.532 91.3675 45.8479C89.3456 49.1612 86.6947 51.947 83.4124 54.2081C80.1301 56.4666 76.4439 58.1976 72.3538 59.4039C68.2611 60.6101 64.1954 61.2106 60.1568 61.2106H54.3999V99.6172C54.3999 100.42 54.5002 101.299 54.7007 102.254C54.9013 103.209 55.2293 104.088 55.6819 104.891C56.1346 105.695 56.6387 106.398 57.1916 106.998C57.7446 107.601 58.4222 107.902 59.2299 107.902H59.9834V109.408H38.8528V107.902H39.6063C40.3083 107.902 40.9642 107.601 41.5687 106.998C42.1731 106.398 42.6745 105.695 43.0784 104.891C43.4795 104.088 43.7804 103.212 43.9837 102.254C44.1842 101.299 44.2845 100.423 44.2845 99.6172V19.3393C44.2845 17.9329 43.8807 16.3263 43.0757 14.5195C42.268 12.7128 41.1133 11.7094 39.6036 11.5065H38.8501V10H38.8528ZM54.3999 15.2714V55.9391H58.9507C62.9947 55.9391 66.6104 55.3874 69.7979 54.2812C72.9826 53.1777 75.6389 51.7198 77.7611 49.9131C79.8834 48.1064 81.5015 46.0481 82.6155 43.7383C83.7295 41.4312 84.2852 39.07 84.2852 36.6601C84.2852 33.7499 83.8027 31.0127 82.8432 28.4514C81.881 25.89 80.3144 23.6316 78.1406 21.6734C75.9668 19.7152 73.1073 18.16 69.5675 17.0024C66.0277 15.8502 61.6774 15.2714 56.5222 15.2714H54.3972H54.3999Z" fill="#006EB7"/>
<path d="M85.7217 38.3993C79.9295 34.1367 71.4566 32 60.2896 32H38.8528V33.5065H39.6036C41.1133 33.7012 42.2733 34.7101 43.0783 36.5114C43.8833 38.3236 44.2845 39.9329 44.2845 41.3393V86.9999L54.5896 77.9364H54.3944V37.2714H56.5248C61.6774 37.2714 66.0249 37.8448 69.5647 38.9997C73.1046 40.1546 75.9587 41.7098 78.1379 43.6707C80.3171 45.6316 81.881 47.8873 82.8378 50.4487C83.0871 51.114 83.3094 51.7983 83.4964 52.4934L91.7551 45.2232C90.3375 42.5862 88.3156 40.3223 85.7217 38.3966V38.3993Z" fill="#0BBBEF"/>
</svg>
